# xmcd
#
# Track frame offsets:
#	182
#	16517
#	32012
#	44557
#	60910
#	78407
#	94917
#	110470
#	126740
#	143515
#	156367
#	171990
#
# Disc length: 2461 seconds
#
# Revision: 1
# Processed by: cddbd v1.5.1PL2 Copyright (c) Steve Scherf et al.
# Submitted via: EasyCDDAExtractor 5.0.7
#
DISCID=99099b0c
DTITLE=Georgia Middleman - Endless Possibiities
DYEAR=1900
DGENRE=Country
TTITLE0=No place like Home
TTITLE1=Someone who loves you
TTITLE2=Fallin'
TTITLE3=What are you gonna do
TTITLE4=Rain on a river
TTITLE5=Closets
TTITLE6=Tap dancing on the Highwire
TTITLE7=Michelangelo
TTITLE8=There ain't no good in goodbye
TTITLE9=A new pair of shoes
TTITLE10=Thrilled
TTITLE11=Kick down the door
EXTD=
EXTT0=
EXTT1=
EXTT2=
EXTT3=
EXTT4=
EXTT5=
EXTT6=
EXTT7=
EXTT8=
EXTT9=
EXTT10=
EXTT11=
PLAYORDER=
